<?xml version="1.0" encoding="utf-8"?>
<!-- Generator: Adobe Illustrator 27.2.0, SVG Export Plug-In . SVG Version: 6.00 Build 0)  -->
<svg version="1.1" id="Calque_1" xmlns="http://www.w3.org/2000/svg" xmlns:xlink="http://www.w3.org/1999/xlink" x="0px" y="0px"
	 viewBox="0 0 488 512" style="enable-background:new 0 0 488 512;" xml:space="preserve">
<style type="text/css">
	.st0{display:none;}
	.st1{display:inline;}
	.st2{display:inline;fill:#0092FF;}
	.st3{display:inline;fill:#FFA400;}
	.st4{fill:none;stroke:#070707;stroke-width:40;stroke-miterlimit:10;}
	.st5{fill:#070707;}
</style>
<g id="Calque_1_00000024684202516787785550000016176337425272856709_" focusable="false" class="st0">
	<path class="st1" d="M495.9,264.7c0,147.6-101.1,252.6-250.3,252.6c-143.1,0-258.6-115.6-258.6-258.6S102.5,0,245.6,0
		C315.2,0,373.9,25.6,419,67.7l-70.4,67.7C256.5,46.5,85.3,113.3,85.3,258.6c0,90.2,72.1,163.3,160.3,163.3
		c102.4,0,140.8-73.4,146.8-111.5H245.6v-89h246.2C494.2,234.8,495.9,247.5,495.9,264.7L495.9,264.7z"/>
</g>
<g id="Calque_2_00000175291751757329129090000003355351854648357799_" class="st0">
	<circle class="st2" cx="241.4" cy="332.3" r="185"/>
	<circle class="st3" cx="242.8" cy="332.3" r="104.9"/>
	<circle class="st3" cx="319.7" cy="137.1" r="68.6"/>
	<circle class="st3" cx="175.7" cy="34.3" r="34.3"/>
</g>
<g id="Calque_2_-_copie">
	<ellipse class="st4" cx="250.2" cy="286.9" rx="192.9" ry="192.1"/>
	<circle class="st5" cx="250.2" cy="286.9" r="55.7"/>
	<circle class="st5" cx="343.4" cy="109.1" r="61"/>
	<circle class="st5" cx="170.3" cy="32.1" r="24.1"/>
</g>
</svg>
